<svg xmlns="http://www.w3.org/2000/svg" width="87.455" height="85.786" viewBox="0 0 87.455 85.786"><defs><style>.a{fill:#e2fff8;}.a,.b,.c,.d{fill-rule:evenodd;}.b{fill:#61c8ce;}.c{fill:#2cb9aa;}.d{fill:#96e6de;}.e{fill:#06f;}.f{fill:#f0f0f1;mix-blend-mode:multiply;isolation:isolate;}</style></defs><path class="a" d="M1575.625,624.807a21.557,21.557,0,0,1-8.842,13.951,4.256,4.256,0,0,0-1.413-.24h-6.851v-6.85c0-.1,0-.2-.014-.292a11.082,11.082,0,0,0,6.459-7.543,10.336,10.336,0,0,0-2.5-9.751,11.183,11.183,0,0,0-18.348,2.891,10.68,10.68,0,0,0-.4,7.763,20.843,20.843,0,0,0-5.622-2.42,21.107,21.107,0,0,0-5.561-.711,20.952,20.952,0,0,1,14.2-20.25,21.917,21.917,0,0,1,23.993,6.031,20.148,20.148,0,0,1,4.544,8.419A21.232,21.232,0,0,1,1575.625,624.807Z" transform="translate(-1510.716 -600.016)"/><path class="b" d="M1533.223,647.043a4.157,4.157,0,0,0-.217,1.328v6.85h-6.846a4.291,4.291,0,0,0-.495.028c-3.8-8.583-16.455-8.762-20.354.066a10.5,10.5,0,0,0,2.029,11.606,11.085,11.085,0,0,0,11.573,2.985,20.9,20.9,0,0,0-3.338,10.971,21.509,21.509,0,0,1-20.491-13.941,20.175,20.175,0,0,1-1.243-8.88,21.351,21.351,0,0,1,5.32-12.5,22.021,22.021,0,0,1,11.229-6.691A21.656,21.656,0,0,1,1533.223,647.043Z" transform="translate(-1493.768 -616.72)"/><path class="c" d="M1616.4,668.5a21.049,21.049,0,0,1-7.487,8.659,22.486,22.486,0,0,1-10.316,3.639,21.451,21.451,0,0,1-20.01-9.365,4.291,4.291,0,0,0,.07-.782v-6.851h6.851a4.841,4.841,0,0,0,.65-.047,11.524,11.524,0,0,0,4.444,4.977,11.678,11.678,0,0,0,6.351,1.709,10.825,10.825,0,0,0,10.288-7.862,10.448,10.448,0,0,0-3.089-10.824,11.217,11.217,0,0,0-11.389-2.312,22.146,22.146,0,0,0,3.352-11.163,21.55,21.55,0,0,1,18.428,9.421,21.8,21.8,0,0,1,3.635,9.822A20.44,20.44,0,0,1,1616.4,668.5Z" transform="translate(-1530.851 -616.745)"/><path class="d" d="M1575.958,700.633a21.3,21.3,0,0,1-3.719,12.218,21.7,21.7,0,0,1-9.337,7.637,22.067,22.067,0,0,1-23.311-3.795,21.216,21.216,0,0,1-7.1-17.628,20.62,20.62,0,0,1,9.487-15.669,4.281,4.281,0,0,0,1.078.137h6.846v6.851a3.849,3.849,0,0,0,.047.621,10.553,10.553,0,0,0-6.5,12.232,10.822,10.822,0,0,0,11.733,8.484,10.436,10.436,0,0,0,4.718-1.487,11.324,11.324,0,0,0,3.573-3.432,10.711,10.711,0,0,0,1.2-9.483,21.817,21.817,0,0,0,11.286,3.315Z" transform="translate(-1510.669 -636.472)"/><g transform="translate(28.11 27.37)"><path class="e" d="M1570.26,659.78h-6.85v-6.85a4.259,4.259,0,0,0-.753-2.423h0c-.008-.012-.019-.023-.027-.035-.08-.114-.166-.224-.257-.33-.029-.034-.06-.065-.089-.1-.078-.085-.158-.167-.242-.245-.035-.033-.07-.065-.106-.1-.09-.078-.184-.152-.28-.223-.031-.023-.061-.047-.093-.069a4.278,4.278,0,0,0-.406-.25l-.034-.017c-.127-.067-.259-.127-.393-.182-.046-.019-.093-.034-.139-.051-.1-.038-.21-.073-.318-.1-.054-.015-.107-.029-.163-.042-.109-.026-.221-.046-.334-.064-.05-.007-.1-.017-.151-.023a4.227,4.227,0,0,0-3.22.946,4.348,4.348,0,0,0-.581.58c-.087.106-.169.216-.246.33a4.26,4.26,0,0,0-.732,2.394h0v6.85H1548a4.281,4.281,0,0,0-4.281,4.282,4.338,4.338,0,0,0,.032.5c.006.051.016.1.023.152.017.113.038.225.064.335.013.055.027.109.042.164.03.109.065.214.1.319.017.047.032.094.051.14a4.284,4.284,0,0,0,.2.424l0,.006a4.395,4.395,0,0,0,.25.4c.027.039.056.075.085.114.066.089.136.176.209.26.035.041.072.08.108.119.076.08.155.158.237.232.035.032.069.065.106.1a4.155,4.155,0,0,0,.364.28l.008.006h0a4.26,4.26,0,0,0,2.4.735h6.85v6.85a4.281,4.281,0,0,0,8.563,0v-6.85h6.85a4.281,4.281,0,0,0,0-8.563Z" transform="translate(-1543.716 -648.649)"/><path class="f" d="M1563.5,676.991v1.284h5.287a4.56,4.56,0,0,0,4.56-4.56v-5.287h-1.284v4.282a4.281,4.281,0,0,1-4.281,4.281Z" transform="translate(-1552.364 -657.297)"/></g></svg>