<svg xmlns="http://www.w3.org/2000/svg" width="100" height="100" viewBox="0 0 100 100"><defs><style>.a{fill:#f0f0f1;}</style></defs><path class="a" d="M92.857,71.286H60.714V39.143A7.144,7.144,0,0,0,53.571,32H46.429a7.144,7.144,0,0,0-7.143,7.143V71.286H7.143A7.144,7.144,0,0,0,0,78.429v7.143a7.144,7.144,0,0,0,7.143,7.143H39.286v32.143A7.144,7.144,0,0,0,46.429,132h7.143a7.144,7.144,0,0,0,7.143-7.143V92.714H92.857A7.144,7.144,0,0,0,100,85.571V78.429A7.144,7.144,0,0,0,92.857,71.286Z" transform="translate(0 -32)"/></svg>