<svg xmlns="http://www.w3.org/2000/svg" width="77.994" height="74.34" viewBox="0 0 77.994 74.34"><defs><style>.a{fill:#f3cc30;stroke:#f3cc30;}.b{fill:#f7db5e;}</style></defs><g transform="translate(-52.486 -658.347)"><path class="a" d="M270.59,11467.32l10.935,22.156a1.234,1.234,0,0,0,.93.676l24.451,3.553a1.236,1.236,0,0,1,.685,2.107l-17.693,17.246a1.235,1.235,0,0,0-.355,1.094l4.177,24.352a1.235,1.235,0,0,1-1.792,1.3l-21.87-11.5a1.239,1.239,0,0,0-1.149,0l-21.87,11.5a1.235,1.235,0,0,1-1.792-1.3l4.177-24.352a1.236,1.236,0,0,0-.355-1.094l-17.693-17.246a1.236,1.236,0,0,1,.685-2.107l24.451-3.553a1.234,1.234,0,0,0,.93-.676l10.935-22.156A1.235,1.235,0,0,1,270.59,11467.32Z" transform="translate(-178 -10807.785)"/><g transform="translate(57.978 664.652)"><path class="b" d="M307.2,11516.423l-9.745,18.875a3.264,3.264,0,0,1-2.6,1.752l-21.158,1.931,22.354,1.045a3.259,3.259,0,0,0,3.212-2.127Z" transform="translate(-273.692 -11516.423)"/></g></g></svg>