<svg xmlns="http://www.w3.org/2000/svg" width="79.003" height="75.346" viewBox="0 0 79.003 75.346"><defs><style>.a{fill:none;stroke:#f3cc30;stroke-miterlimit:10;stroke-width:2px;}.b{fill:#f7db5e;}</style></defs><g transform="translate(-63.981 -40.435)"><path class="a" d="M270.59,247.32l10.935,22.157a1.235,1.235,0,0,0,.93.676l24.451,3.553a1.235,1.235,0,0,1,.685,2.107L289.9,293.059a1.234,1.234,0,0,0-.355,1.093L293.72,318.5a1.235,1.235,0,0,1-1.792,1.3l-21.87-11.5a1.235,1.235,0,0,0-1.149,0l-21.87,11.5a1.235,1.235,0,0,1-1.792-1.3l4.177-24.353a1.235,1.235,0,0,0-.355-1.093l-17.693-17.247a1.235,1.235,0,0,1,.685-2.107l24.451-3.553a1.235,1.235,0,0,0,.93-.676l10.935-22.157A1.235,1.235,0,0,1,270.59,247.32Z" transform="translate(-166 -205.197)"/><g transform="translate(69.978 47.242)"><path class="b" d="M307.2,296.423,297.452,315.3a3.262,3.262,0,0,1-2.6,1.752l-21.158,1.931,22.354,1.045a3.262,3.262,0,0,0,3.212-2.127Z" transform="translate(-273.692 -296.423)"/></g></g></svg>