<svg xmlns="http://www.w3.org/2000/svg" width="79.003" height="75.346" viewBox="0 0 79.003 75.346"><defs><style>.a{fill:#f3cc30;}.a,.b{stroke:#f3cc30;}.b{fill:none;stroke-miterlimit:10;stroke-width:2px;}.c{fill:#f7db5e;}</style></defs><g transform="translate(-51.981 -134.481)"><path class="a" d="M232.06,7005.715a1.227,1.227,0,0,0-.551.223,1.2,1.2,0,0,0-.147.126,1.223,1.223,0,0,0-.19.25l-.012.02a1.228,1.228,0,0,0,.216,1.487l17.693,17.247c.026.025.049.052.072.079a1.248,1.248,0,0,1,.283,1.014l-2.283,13.31-1.894,11.043a1.236,1.236,0,0,0,1.792,1.3l19.585-10.3,2.284-1.2a1.109,1.109,0,0,1,.135-.061,1.179,1.179,0,0,1,.127-.04l.011,0a1.233,1.233,0,0,1,.877.1l7.317,3.847v-51.088l-6.785-13.747a1.219,1.219,0,0,0-1.125-.687h0a1.236,1.236,0,0,0-.476.1l-.01,0a1.246,1.246,0,0,0-.137.07l-.027.018a1.132,1.132,0,0,0-.11.078c-.016.013-.03.028-.046.042s-.054.048-.079.075-.042.052-.063.079-.033.038-.048.06a1.338,1.338,0,0,0-.094.161l-10.75,21.783-.185.374h0a1.236,1.236,0,0,1-.93.676Z" transform="translate(-178.001 -6843.16)"/><path class="b" d="M270.59,6979.32l10.935,22.156a1.235,1.235,0,0,0,.93.676l24.451,3.553a1.235,1.235,0,0,1,.685,2.106L289.9,7025.059a1.235,1.235,0,0,0-.355,1.093l4.177,24.353a1.235,1.235,0,0,1-1.792,1.3l-21.87-11.5a1.236,1.236,0,0,0-1.149,0l-21.87,11.5a1.235,1.235,0,0,1-1.792-1.3l4.177-24.353a1.236,1.236,0,0,0-.355-1.093l-17.693-17.247a1.234,1.234,0,0,1,.685-2.106l24.451-3.553a1.235,1.235,0,0,0,.93-.676l10.935-22.156A1.235,1.235,0,0,1,270.59,6979.32Z" transform="translate(-178 -6843.15)"/><g transform="translate(57.978 141.288)"><path class="c" d="M307.2,7028.423l-9.745,18.875a3.263,3.263,0,0,1-2.6,1.752l-21.158,1.932,22.354,1.045a3.262,3.262,0,0,0,3.212-2.127Z" transform="translate(-273.692 -7028.423)"/></g></g></svg>