<svg xmlns="http://www.w3.org/2000/svg" width="79.002" height="75.346" viewBox="0 0 79.002 75.346"><defs><style>.a{fill:#f3cc30;}.a,.b{stroke:#f3cc30;}.b{fill:none;stroke-miterlimit:10;stroke-width:2px;}.c{fill:#f7db5e;}</style></defs><g transform="translate(-51.981 -396.164)"><path class="a" d="M281.529,9245.486l-2.232-4.521-1.919-3.888-6.785-13.747a1.261,1.261,0,0,0-.1-.163c-.008-.011-.017-.02-.024-.03a1.349,1.349,0,0,0-.089-.11c-.01-.011-.022-.021-.033-.03a1.045,1.045,0,0,0-.1-.088c-.009-.008-.018-.013-.027-.02a1.025,1.025,0,0,0-.116-.078l-.014-.008a1.248,1.248,0,0,0-.139-.068c-.042-.017-.084-.03-.127-.043-.025-.008-.05-.012-.076-.018s-.044-.01-.066-.014l-.079-.011-.066,0-.078,0h0l-.077.006a.331.331,0,0,0-.044,0l-.072.012q-.037.006-.073.015a.582.582,0,0,0-.069.019c-.028.008-.055.018-.082.027l-.055.02-.016.01a1.15,1.15,0,0,0-.13.066l-.011.007c-.01.007-.02.015-.03.021a1.055,1.055,0,0,0-.1.068.294.294,0,0,0-.029.027l-.022.02c-.025.023-.051.045-.075.07-.007.008-.014.018-.021.025s-.034.041-.05.063-.028.032-.04.051c-.024.035-.045.074-.066.112-.009.017-.019.03-.028.048l-1.056,2.139-1.772,3.592-7.922,16.052-.185.374h0a1.209,1.209,0,0,1-.173.26l0,0a1.059,1.059,0,0,1-.094.1,1.138,1.138,0,0,1-.111.092c-.021.015-.043.027-.065.041l0,0c-.019.012-.037.024-.057.035h0a1.428,1.428,0,0,1-.155.072h0q-.043.016-.088.029l-.045.014h0l-.045.01c-.029.006-.058.014-.089.018l-24.451,3.553h0c-.048.008-.094.018-.139.029l-.022.006a1.355,1.355,0,0,0-.129.044l-.013.006a1.239,1.239,0,0,0-.246.138c-.026.02-.051.039-.075.06h0c-.024.021-.047.043-.069.064h0a1.209,1.209,0,0,0-.1.117v0a1.329,1.329,0,0,0-.086.131h0l-.011.019,0,0c-.014.027-.028.053-.04.08l-.006.014,0,.008c-.009.02-.018.042-.026.064l-.009.023c-.007.021-.014.043-.021.064l-.006.021v0q-.009.035-.017.07l0,.02a1.229,1.229,0,0,0-.022.186c0,.006,0,.014,0,.021,0,.023,0,.046,0,.068s0,.014,0,.021,0,.007,0,.011q0,.031,0,.062c0,.011,0,.022,0,.032s.006.043.01.063,0,.021.006.03.011.046.017.069l.006.022c.009.029.019.059.03.089l.006.014,0,.006c.009.023.019.045.029.067l.014.028v0l.03.056.02.032c.011.018.022.035.034.052l.022.032.042.051.007.01.015.018c.022.025.045.051.07.074v0h0l17.693,17.246h0c.028.028.053.057.077.086s.035.043.052.065h0l0,0a1.251,1.251,0,0,1,.154.281v0a1.3,1.3,0,0,1,.044.137v.006h0a1.217,1.217,0,0,1,.025.121v.009c.006.04.01.081.012.121h0c0,.017,0,.034,0,.051q0,.06-.006.12c0,.03,0,.06-.01.089h0l-2.971,17.319-.026.151-1.18,6.881s0,.008,0,.013c0,.026-.008.054-.011.081s0,.027,0,.042,0,.032,0,.048,0,.029,0,.045,0,.03,0,.045,0,.033,0,.051,0,.023,0,.035.005.036.008.054,0,.021,0,.03.008.037.012.057,0,.018.006.025.011.039.017.058l.007.023c.007.021.014.04.022.06l.007.016c.009.021.018.043.028.063l.006.012c.011.021.022.043.033.063a.059.059,0,0,0,.005.009q.018.032.039.062l0,0,0,0c.014.021.029.042.045.062v0c.016.02.032.04.049.059l0,0c.017.02.036.039.054.058h0a1.172,1.172,0,0,0,.12.105,1.21,1.21,0,0,0,.141.095h0c.024.015.048.026.072.039l0,0,.074.033,0,0c.024.009.048.019.072.026l.009,0,.073.021.009,0h0c.024.007.048.012.072.017h0l.009,0c.023,0,.046.008.069.01a.044.044,0,0,0,.016,0l.065.006h.11c.021,0,.041,0,.062,0h.027l.056-.009.032,0,.056-.013.032-.007c.016-.006.031-.01.047-.015l.042-.014.053-.021.033-.014.049-.023.037-.018,17.669-9.289,1.917-1.008,2.284-1.2a1.192,1.192,0,0,1,.135-.061h0a.275.275,0,0,1,.027-.009c.027-.01.055-.019.083-.026s.051-.013.077-.018h0c.027-.006.054-.012.081-.016h0l.056-.006h0c.024,0,.049,0,.073,0l.059,0h0c.02,0,.04,0,.06,0s.062,0,.092.008h0l.075.014a1.226,1.226,0,0,1,.165.045h0a1.15,1.15,0,0,1,.164.069l.329.174.921.484,6.067,3.189,7.91,4.158h0l6.643,3.492a1.219,1.219,0,0,0,1.267-.072v-4.289l-3.652-21.293a1.237,1.237,0,0,1,.355-1.094l3.3-3.214v-18.132l-7.91-1.149h0l-2.107-.306-.723-.105a.956.956,0,0,1-.128-.027,1.281,1.281,0,0,1-.161-.051,1.239,1.239,0,0,1-.64-.6Z" transform="translate(-178.004 -8825.478)"/><path class="b" d="M270.59,9223.32l10.935,22.157a1.235,1.235,0,0,0,.93.675l24.451,3.553a1.236,1.236,0,0,1,.685,2.107L289.9,9269.059a1.236,1.236,0,0,0-.355,1.094l4.177,24.353a1.235,1.235,0,0,1-1.792,1.3l-21.87-11.5a1.233,1.233,0,0,0-1.149,0l-21.87,11.5a1.235,1.235,0,0,1-1.792-1.3l4.177-24.353a1.237,1.237,0,0,0-.355-1.094l-17.693-17.246a1.236,1.236,0,0,1,.685-2.107l24.451-3.553a1.235,1.235,0,0,0,.93-.675l10.935-22.157A1.235,1.235,0,0,1,270.59,9223.32Z" transform="translate(-178 -8825.468)"/><g transform="translate(57.978 402.97)"><path class="c" d="M307.2,9272.423l-9.745,18.874a3.263,3.263,0,0,1-2.6,1.753l-21.158,1.931,22.354,1.046a3.26,3.26,0,0,0,3.212-2.128Z" transform="translate(-273.692 -9272.423)"/></g></g></svg>