<svg xmlns="http://www.w3.org/2000/svg" width="194" height="216.59" viewBox="0 0 194 216.59"><defs><style>.a{opacity:0.5;}.b{fill:#1f56a4;}.c{fill:#ededed;mix-blend-mode:multiply;isolation:isolate;}.d{opacity:0.6;}.e{opacity:0.2;}</style></defs><g transform="translate(-72.126 -117.604)"><g class="a" transform="translate(111.939 117.604)"><path class="b" d="M232.387,162.114H205V134.723a17.033,17.033,0,0,0-3.011-9.688h0c-.032-.049-.074-.091-.107-.139q-.481-.684-1.026-1.317c-.116-.135-.238-.263-.358-.394q-.465-.509-.967-.978c-.141-.131-.281-.26-.426-.387-.36-.314-.736-.61-1.122-.893-.124-.091-.243-.189-.371-.277a17,17,0,0,0-1.622-1c-.045-.024-.093-.043-.138-.067a17.243,17.243,0,0,0-1.573-.727c-.183-.074-.371-.136-.557-.2-.417-.152-.839-.289-1.27-.409-.215-.06-.43-.115-.65-.166-.438-.1-.884-.185-1.335-.254-.2-.03-.4-.069-.6-.092a17.34,17.34,0,0,0-1.985-.124,17.047,17.047,0,0,0-10.889,3.909,17.249,17.249,0,0,0-2.321,2.32q-.523.634-.986,1.318a17.043,17.043,0,0,0-2.923,9.572h0v27.391H143.368a17.044,17.044,0,0,0-16.993,19.112c.024.206.062.408.093.611.069.452.152.9.255,1.339.052.221.109.438.169.655.121.434.26.858.413,1.277.068.186.13.374.2.558a17.161,17.161,0,0,0,.789,1.7.1.1,0,0,1,.007.015,17.181,17.181,0,0,0,1,1.612c.108.155.226.3.339.454.267.357.544.705.836,1.041.141.16.285.318.431.474.3.321.621.63.949.928.141.128.277.26.422.383a17.046,17.046,0,0,0,1.455,1.119c.012.008.021.018.032.025h0a17.035,17.035,0,0,0,9.592,2.94h27.391v27.391a17.119,17.119,0,0,0,34.238,0V196.352h27.391a17.119,17.119,0,0,0,0-34.239Z" transform="translate(-126.249 -117.604)"/><path class="c" d="M186.757,212.351v5.135H207.9a18.235,18.235,0,0,0,18.236-18.236V178.112h-5.136v17.119a17.119,17.119,0,0,1-17.119,17.12Z" transform="translate(-142.247 -133.602)"/></g><g class="d" transform="translate(72.126 213.891)"><path class="b" d="M101.522,260.827H93.936v-7.586a4.715,4.715,0,0,0-.834-2.683h0c-.009-.013-.021-.025-.029-.038q-.134-.19-.285-.365c-.032-.038-.065-.073-.1-.109-.085-.094-.174-.184-.268-.271-.038-.037-.077-.072-.118-.107q-.15-.13-.31-.247c-.035-.026-.068-.052-.1-.076a4.748,4.748,0,0,0-.449-.278l-.038-.018a4.789,4.789,0,0,0-.436-.2c-.051-.02-.1-.038-.154-.056-.115-.042-.232-.08-.352-.113-.06-.017-.119-.032-.179-.046-.121-.029-.245-.051-.37-.07-.056-.009-.11-.019-.167-.026a4.843,4.843,0,0,0-.549-.035,4.719,4.719,0,0,0-3.016,1.083,4.78,4.78,0,0,0-.643.642c-.1.118-.188.239-.273.366a4.716,4.716,0,0,0-.81,2.65h0v7.586H76.868a4.717,4.717,0,0,0-4.706,5.293c.007.057.017.113.026.169.019.125.042.249.071.371.015.061.03.121.047.181.033.121.072.238.114.354.019.051.036.1.057.154a4.7,4.7,0,0,0,.218.469l0,0a4.648,4.648,0,0,0,.278.447c.03.043.063.084.094.126.074.1.15.2.232.288.039.045.079.088.119.132.084.089.172.174.263.257.039.035.077.072.117.107a4.835,4.835,0,0,0,.4.31l.009.007h0a4.722,4.722,0,0,0,2.657.814h7.586V277.9a4.741,4.741,0,0,0,9.483,0V270.31h7.586a4.741,4.741,0,0,0,0-9.483Z" transform="translate(-72.126 -248.5)"/><path class="c" d="M88.884,274.741v1.422h5.855a5.05,5.05,0,0,0,5.05-5.05v-5.855H98.367V270a4.742,4.742,0,0,1-4.741,4.742Z" transform="translate(-76.557 -252.931)"/></g><g class="e" transform="translate(193.707 261.776)"><path class="b" d="M299.768,339.747H283.675V323.654a10.012,10.012,0,0,0-1.769-5.693h0c-.019-.029-.043-.054-.063-.082q-.282-.4-.6-.774c-.068-.079-.14-.154-.21-.231q-.273-.3-.568-.574c-.082-.077-.165-.153-.25-.227-.212-.185-.433-.358-.659-.525-.074-.053-.143-.11-.218-.163a10.176,10.176,0,0,0-.953-.589c-.026-.014-.054-.025-.081-.04-.3-.157-.608-.3-.924-.427-.107-.043-.218-.08-.327-.12-.245-.089-.493-.17-.747-.24-.126-.035-.253-.068-.381-.1-.258-.06-.52-.109-.785-.149-.118-.018-.235-.04-.355-.054a9.959,9.959,0,0,0-7.564,2.224,10.12,10.12,0,0,0-1.364,1.363q-.307.373-.579.775a10.012,10.012,0,0,0-1.718,5.624h0v16.093H247.465a10.011,10.011,0,0,0-9.984,11.23c.014.121.036.239.054.358.04.266.089.528.15.787.031.129.063.257.1.385.071.255.153.5.243.75.04.11.076.22.12.328a10.058,10.058,0,0,0,.464,1l0,.009a10.073,10.073,0,0,0,.59.947c.063.091.132.177.2.267.157.21.319.414.491.611q.124.141.253.279c.178.189.365.37.558.545.082.075.163.153.248.225a9.873,9.873,0,0,0,.855.658l.019.015h0a10.007,10.007,0,0,0,5.635,1.727h16.093v16.093a10.058,10.058,0,0,0,20.116,0V359.863h16.093a10.058,10.058,0,1,0,0-20.116Z" transform="translate(-237.407 -313.596)"/><path class="c" d="M272.958,369.262v3.017h12.42a10.714,10.714,0,0,0,10.714-10.714v-12.42h-3.017V359.2a10.058,10.058,0,0,1-10.059,10.058Z" transform="translate(-246.807 -322.995)"/></g></g></svg>