<svg xmlns="http://www.w3.org/2000/svg" width="79.003" height="75.346" viewBox="0 0 79.003 75.346"><defs><style>.a{fill:none;stroke-miterlimit:10;stroke-width:2px;}.a,.b{stroke:#f3cc30;}.b{fill:#f3cc30;}.c{fill:#f7db5e;}</style></defs><g transform="translate(-51.981 -527.005)"><path class="a" d="M270.59,10345.32l10.935,22.157a1.233,1.233,0,0,0,.93.675l24.451,3.554a1.235,1.235,0,0,1,.685,2.106l-17.693,17.246a1.237,1.237,0,0,0-.355,1.094l4.177,24.353a1.235,1.235,0,0,1-1.792,1.3l-21.87-11.5a1.239,1.239,0,0,0-1.149,0l-21.87,11.5a1.235,1.235,0,0,1-1.792-1.3l4.177-24.353a1.238,1.238,0,0,0-.355-1.094l-17.693-17.246a1.235,1.235,0,0,1,.685-2.106l24.451-3.554a1.233,1.233,0,0,0,.93-.675l10.935-22.157A1.235,1.235,0,0,1,270.59,10345.32Z" transform="translate(-178 -9816.627)"/><path class="b" d="M301.109,10380.145v-9.271l-8.3-1.207h0l-7.521-1.092-1.033-.15-1.8-.262-.031-.006c-.033-.006-.066-.013-.1-.021h0l-.047-.015a.928.928,0,0,1-.114-.037c-.037-.016-.073-.034-.109-.053l-.045-.025c-.036-.021-.071-.043-.1-.066a1.246,1.246,0,0,1-.3-.312,1.181,1.181,0,0,1-.083-.142l-.934-1.893-1.3-2.629-1.919-3.889-6.785-13.746a1.187,1.187,0,0,0-.1-.162c-.008-.012-.017-.021-.024-.031a1.349,1.349,0,0,0-.089-.11l0,0c-.01-.01-.02-.018-.03-.027a1.045,1.045,0,0,0-.1-.088c-.009-.008-.018-.013-.027-.02a1.175,1.175,0,0,0-.116-.078l-.014-.008a1.248,1.248,0,0,0-.139-.068,1.181,1.181,0,0,0-.127-.043c-.025-.008-.05-.012-.075-.018s-.04-.008-.061-.012l-.006,0c-.026,0-.052-.008-.078-.01l-.063,0h0l-.078,0h0l-.031,0-.049,0-.044,0-.071.012c-.025,0-.05.009-.074.015s-.046.011-.068.019-.055.018-.082.027-.037.013-.055.021l-.016.009a1.15,1.15,0,0,0-.13.066s0,0,0,0-.026.018-.039.025c-.032.021-.063.043-.093.066a.294.294,0,0,0-.029.027l-.022.02c-.025.022-.051.045-.075.07-.007.008-.014.018-.021.025l-.012.016c-.015.018-.03.035-.044.055a.469.469,0,0,0-.034.043c-.011.016-.02.034-.03.052a1.2,1.2,0,0,0-.064.108l-1.82,3.688-1.008,2.043-7.922,16.052-.185.374h0a1.157,1.157,0,0,1-.078.136h0a1.159,1.159,0,0,1-.093.123h0a1.143,1.143,0,0,1-.124.122c-.028.024-.055.049-.085.07s-.043.027-.065.041l0,0h0l-.055.036h0c-.033.019-.068.034-.1.05l-.052.021h0l-.086.029-.046.014h0l-.025,0c-.036.009-.072.017-.109.022l-24.451,3.553h0a1.267,1.267,0,0,0-.139.03l-.022,0a1.132,1.132,0,0,0-.129.045l-.013,0a1.152,1.152,0,0,0-.246.139q-.039.028-.075.059h0c-.024.021-.047.042-.069.064h0a1.114,1.114,0,0,0-.1.118h0a1.223,1.223,0,0,0-.086.131h0l-.011.019,0,0c-.014.027-.028.054-.04.08l-.006.014h0l0,.007c-.009.021-.018.042-.026.063l-.009.024c-.007.021-.014.043-.021.064l-.006.021v.006c-.006.022-.012.046-.017.069l0,.02a1.249,1.249,0,0,0-.022.184c0,.008,0,.015,0,.022h0c0,.023,0,.047,0,.068s0,.014,0,.021,0,.007,0,.01c0,.021,0,.042,0,.063,0,0,0,.013,0,.018s0,.011,0,.016c0,.021.006.042.01.062l.006.03c0,.022.011.045.017.067s0,.017.006.024c.009.03.019.06.03.089l.006.014,0,.006h0c.009.023.019.045.029.067l0,0,.013.025.03.056.02.032.034.053.022.031c.013.018.027.035.042.052l0,0,.012.014.007.008c.022.025.045.051.07.074h0v0l17.693,17.246a1.257,1.257,0,0,1,.13.151h0a1.264,1.264,0,0,1,.087.136v0a1.169,1.169,0,0,1,.068.146h0a1.233,1.233,0,0,1,.044.137h0v.006h0c.01.04.018.08.025.121h0v.006a1.208,1.208,0,0,1,.012.124h0c0,.018,0,.035,0,.052h0c0,.04,0,.079-.006.118h0c0,.03,0,.06-.01.089h0l-2.971,17.32-.026.151-1.18,6.882v.007c0,.014,0,.025-.005.038s0,.032-.006.048,0,.027,0,.041,0,.033,0,.049,0,.03,0,.045,0,.012,0,.018,0,.018,0,.027,0,.033,0,.051h0c0,.012,0,.023,0,.035s.005.035.008.054,0,.021,0,.03.008.037.012.055,0,.02.006.027.011.039.017.059,0,.016.007.022.014.04.022.06l.007.017c.009.021.018.04.027.061l.007.014c.011.021.022.041.033.062l.005.01c.012.021.025.041.039.061l0,0,0,0c.014.021.029.042.045.062v0h0c.016.02.032.04.049.059l0,0c.017.02.036.039.054.058h0a1.067,1.067,0,0,0,.12.1,1.356,1.356,0,0,0,.141.1h0c.024.014.048.025.072.038h0l.074.033h.005c.023.009.046.019.07.025l.007,0h0l.073.021h0l0,0,.072.016h0l.009,0,.069.009a.044.044,0,0,0,.016,0l.065.006h.11c.021,0,.041,0,.062,0h.027l.056-.009.032,0,.056-.013.032-.008c.014,0,.028-.009.043-.013l.028-.009.018,0,.053-.021.033-.014.049-.023.015-.007.022-.011,19-9.987.589-.31,2.284-1.2a1.192,1.192,0,0,1,.135-.061h0l.052-.017q.029-.01.058-.018h0c.025-.007.051-.014.076-.019h0a.775.775,0,0,1,.081-.015h0l.056-.007h0a.608.608,0,0,1,.073,0h0a.582.582,0,0,1,.058,0h0l.034,0c.04,0,.08,0,.119.01h0l.029.006a1.226,1.226,0,0,1,.211.053h0l.056.021c.036.015.072.031.107.049h0l.209.11.12.063.921.484,6.067,3.189,7.91,4.158,1.868.982,4.774,2.51,0,0c.032.016.064.031.1.045l.03.012c.025.01.05.02.075.027l.028.008c.031.01.063.018.094.024l.006,0a1.2,1.2,0,0,0,.218.023h.005a1.248,1.248,0,0,0,.32-.039h0a1.234,1.234,0,0,0,.914-1.407l-.914-5.329h0l-3.263-19.024a1.229,1.229,0,0,1,0-.414c0-.011,0-.022,0-.032a1.239,1.239,0,0,1,.35-.646l2.908-2.834h0Z" transform="translate(-178.004 -9816.637)"/><g transform="translate(57.978 533.811)"><path class="c" d="M307.2,10394.424l-9.745,18.875a3.262,3.262,0,0,1-2.6,1.752l-21.158,1.932,22.354,1.045a3.263,3.263,0,0,0,3.212-2.127Z" transform="translate(-273.692 -10394.424)"/></g></g></svg>