<svg xmlns="http://www.w3.org/2000/svg" width="79.003" height="75.346" viewBox="0 0 79.003 75.346"><defs><style>.a{fill:none;stroke-miterlimit:10;stroke-width:2px;}.a,.b{stroke:#f3cc30;}.b{fill:#f3cc30;}.c{fill:#f7db5e;}</style></defs><g transform="translate(-63.981 -694.641)"><path class="a" d="M270.59,5857.32l10.935,22.157a1.234,1.234,0,0,0,.93.676l24.451,3.553a1.235,1.235,0,0,1,.685,2.106L289.9,5903.059a1.234,1.234,0,0,0-.355,1.093l4.177,24.353a1.235,1.235,0,0,1-1.792,1.3l-21.87-11.5a1.239,1.239,0,0,0-1.149,0l-21.87,11.5a1.235,1.235,0,0,1-1.792-1.3l4.177-24.353a1.235,1.235,0,0,0-.355-1.093l-17.693-17.247a1.235,1.235,0,0,1,.685-2.106l24.451-3.553a1.234,1.234,0,0,0,.93-.676l10.935-22.157A1.235,1.235,0,0,1,270.59,5857.32Z" transform="translate(-166 -5160.991)"/><path class="b" d="M269.465,5918.178v-61.535a1.219,1.219,0,0,0-1.09.687l-10.935,22.157a1.236,1.236,0,0,1-.93.676l-24.451,3.553a1.235,1.235,0,0,0-.685,2.106l17.693,17.247a1.234,1.234,0,0,1,.355,1.093l-4.177,24.353a1.235,1.235,0,0,0,1.792,1.3l21.87-11.5A1.235,1.235,0,0,1,269.465,5918.178Z" transform="translate(-166 -5161.001)"/><g transform="translate(69.978 701.447)"><path class="c" d="M307.2,5906.423l-9.745,18.875a3.262,3.262,0,0,1-2.6,1.752l-21.158,1.932,22.354,1.045a3.262,3.262,0,0,0,3.212-2.127Z" transform="translate(-273.692 -5906.423)"/></g></g></svg>