<svg xmlns="http://www.w3.org/2000/svg" width="79.003" height="75.346" viewBox="0 0 79.003 75.346"><defs><style>.a{fill:#f3cc30;}.a,.b{stroke:#f3cc30;}.b{fill:none;stroke-miterlimit:10;stroke-width:2px;}.c{fill:#f7db5e;}</style></defs><g transform="translate(-51.981 -265.323)"><path class="a" d="M285.289,8170.323v-45.75l-2.83-.411a1.236,1.236,0,0,1-.93-.676l-4.15-8.41h0l-6.785-13.747a1.255,1.255,0,0,0-.1-.163c-.008-.011-.017-.02-.024-.031a1.131,1.131,0,0,0-.089-.11c-.009-.01-.019-.018-.028-.027a1.224,1.224,0,0,0-.1-.093l-.023-.016a1.356,1.356,0,0,0-.119-.081l-.014-.007a1.174,1.174,0,0,0-.139-.068h0a1.241,1.241,0,0,0-.488-.09h-.01c-.039,0-.077,0-.116.008s-.048.008-.072.011l-.072.015c-.023,0-.046.011-.069.018s-.055.018-.082.028-.037.012-.055.02l-.016.008a1.15,1.15,0,0,0-.13.066c-.012.007-.023.017-.035.024a1.074,1.074,0,0,0-.1.072c-.017.013-.031.03-.047.044s-.053.046-.078.073-.021.025-.031.039l-.036.045c-.015.019-.03.036-.043.055a1.283,1.283,0,0,0-.094.16l-2.828,5.73-7.922,16.052-.185.375h0l-.012.021a1.238,1.238,0,0,1-.37.432c-.021.015-.043.027-.065.042s-.041.027-.062.039c-.038.021-.078.039-.118.057l-.038.015c-.031.012-.062.022-.094.032l-.038.011a1.1,1.1,0,0,1-.133.028h0l-24.451,3.553h0a1.266,1.266,0,0,0-.139.029l-.022.005a1.233,1.233,0,0,0-.129.044l-.013,0a1.242,1.242,0,0,0-.246.139,1.153,1.153,0,0,0-.147.126h0a1.22,1.22,0,0,0-.1.118v0a1.216,1.216,0,0,0-.086.13h0l-.011.019,0,0q-.021.04-.04.079l-.009.021c-.009.021-.018.043-.027.065l-.009.024c-.007.021-.014.042-.021.064l-.007.025c-.006.023-.012.046-.017.07l0,.019a1.252,1.252,0,0,0-.022.186c0,.007,0,.014,0,.021,0,.023,0,.047,0,.071s0,.02,0,.03,0,.042.005.063,0,.021,0,.032.006.042.01.063,0,.02.006.029c.005.024.011.048.017.071,0,.007,0,.014.005.02q.013.045.03.089l.008.02c.009.023.019.045.029.067l.016.031c.01.019.019.037.03.055l.02.033c.011.018.022.035.034.052l.022.031c.013.018.028.036.042.053l.022.026c.022.025.045.05.07.074h0l17.693,17.247a1.254,1.254,0,0,1,.13.152l0,.006a1.229,1.229,0,0,1,.09.144l.009.016a1.236,1.236,0,0,1,.1.244l.005.02a1.217,1.217,0,0,1,.038.251c0,.031,0,.062,0,.093,0,.015,0,.029,0,.045a1.131,1.131,0,0,1-.014.123h0l-3,17.472-1.18,6.881c0,.008,0,.016,0,.024s-.007.045-.009.067,0,.029,0,.043,0,.032,0,.048,0,.032,0,.048,0,.027,0,.041,0,.035,0,.051,0,.024,0,.036.005.036.008.054,0,.021,0,.03.008.037.012.057,0,.017.006.025.011.039.017.058l.007.022c.007.02.015.04.022.06l.007.017c.009.021.018.042.028.061l.006.013c.01.021.022.042.033.063l.005.009c.012.021.025.042.039.062l0,.006c.014.021.029.042.045.062l0,0c.016.021.033.041.05.06h0c.018.02.036.039.055.058h0a1.376,1.376,0,0,0,.121.105,1.275,1.275,0,0,0,.141.095h0l.074.039h0c.025.012.05.023.075.034h0c.025.01.05.019.075.027l.006,0,.074.022.009,0c.024.006.048.012.072.016l.012,0c.023,0,.047.007.07.01l.016,0c.022,0,.045,0,.068.005h.107l.062,0,.026,0,.059-.008.029,0,.057-.013.032-.007.054-.017.034-.011.054-.021.033-.014.061-.029.025-.013,12-6.307,7.589-3.99,2.284-1.2a1.192,1.192,0,0,1,.135-.061h0a1.329,1.329,0,0,1,.187-.053l.081-.015.058-.007c.026,0,.052,0,.079,0h.053a1.207,1.207,0,0,1,.126.007l.027,0c.035.005.071.011.106.02l.044.011c.031.008.061.018.091.028l.04.015a1.1,1.1,0,0,1,.123.055h0l1.251.658,6.067,3.189h0Z" transform="translate(-178.004 -7834.318)"/><path class="b" d="M270.59,8101.32l10.935,22.157a1.233,1.233,0,0,0,.93.675l24.451,3.553a1.235,1.235,0,0,1,.685,2.107L289.9,8147.059a1.235,1.235,0,0,0-.355,1.093l4.177,24.353a1.235,1.235,0,0,1-1.792,1.3l-21.87-11.5a1.236,1.236,0,0,0-1.149,0l-21.87,11.5a1.235,1.235,0,0,1-1.792-1.3l4.177-24.353a1.236,1.236,0,0,0-.355-1.093l-17.693-17.246a1.235,1.235,0,0,1,.685-2.107l24.451-3.553a1.233,1.233,0,0,0,.93-.675l10.935-22.157A1.235,1.235,0,0,1,270.59,8101.32Z" transform="translate(-178 -7834.309)"/><g transform="translate(57.978 272.129)"><path class="c" d="M307.2,8150.423l-9.745,18.875a3.264,3.264,0,0,1-2.6,1.752l-21.158,1.931,22.354,1.045a3.262,3.262,0,0,0,3.212-2.127Z" transform="translate(-273.692 -8150.423)"/></g></g></svg>