<svg xmlns="http://www.w3.org/2000/svg" width="247.846" height="52.179" viewBox="0 0 247.846 52.179"><defs><style>.a{fill:#2cb9aa;}.b{fill:#61c8ce;}</style></defs><g transform="translate(0.195 0)"><path class="a" d="M1493.89,792.56V770.73a2.542,2.542,0,0,1,2.552-2.553h2.481v19.846h11.909v4.537Z" transform="translate(-1493.89 -767.469)"/><path class="a" d="M1505.538,792.56V770.73a2.54,2.54,0,0,1,2.551-2.553h2.481V792.56Z" transform="translate(-1486.91 -767.469)"/><path class="a" d="M1509.651,792.586v-21.83a2.462,2.462,0,0,1,.744-1.809,2.726,2.726,0,0,1,1.807-.814h4.89l4.82,18.64,4.819-18.64h7.443v24.453H1529.5v-19.7l-4.961,19.7h-5.176l-5.031-19.7v19.7Z" transform="translate(-1484.445 -767.495)"/><path class="a" d="M1531.97,792.56V770.73a2.54,2.54,0,0,1,2.551-2.553H1537v9.073h10.066v-9.073h5.1V792.56h-5.1V781.715H1537V792.56Z" transform="translate(-1471.069 -767.469)"/><path class="a" d="M1545.788,792.56V770.73a2.542,2.542,0,0,1,2.552-2.553h15.168v4.181h-12.758V777.6h9.5v1.631a2.541,2.541,0,0,1-2.552,2.551h-6.946v6.237h12.758v4.537Z" transform="translate(-1462.788 -767.469)"/><path class="a" d="M1568.458,768.177h3.969l8.86,24.383h-5.316l-1.631-5.033h-9.5l-1.559,5.033h-5.316l8.081-22.753A2.38,2.38,0,0,1,1568.458,768.177Zm1.134,4.891-3.4,10.349h6.8Z" transform="translate(-1455.489 -767.469)"/><path class="a" d="M1573.825,792.56V770.73a2.539,2.539,0,0,1,2.551-2.553h2.48v19.846h11.908v4.537Z" transform="translate(-1445.986 -767.469)"/><path class="a" d="M1592.7,792.56V772.5h-7.23v-1.77a2.539,2.539,0,0,1,2.551-2.553h16.869V772.5h-7.158v20.06Z" transform="translate(-1439.006 -767.469)"/><path class="a" d="M1598.759,792.56V770.73a2.542,2.542,0,0,1,2.552-2.553h2.481v9.073h10.064v-9.073h5.1V792.56h-5.1V781.715h-10.064V792.56Z" transform="translate(-1431.043 -767.469)"/><path class="a" d="M1636.475,789.92a7.811,7.811,0,0,1-3.047,2.691,10.243,10.243,0,0,1-4.041.781,10.465,10.465,0,0,1-8.292-3.472q-3.119-3.4-3.119-9.358,0-5.882,3.048-9.286a10.8,10.8,0,0,1,8.435-3.542,12.294,12.294,0,0,1,7.512,2.2,9.336,9.336,0,0,1,3.474,6.095h-3.4a2.328,2.328,0,0,1-2.2-1.347,5.46,5.46,0,0,0-1.417-1.559,6.422,6.422,0,0,0-3.757-.993,5.866,5.866,0,0,0-4.82,2.2,10.075,10.075,0,0,0-1.772,6.237,9.627,9.627,0,0,0,1.842,6.239,6.1,6.1,0,0,0,5.033,2.2,5.853,5.853,0,0,0,3.969-1.347,6.576,6.576,0,0,0,1.985-3.9h-2.978a2.542,2.542,0,0,1-2.551-2.551V779.57h10.136v13.255h-1.346a2.343,2.343,0,0,1-2.48-1.985Z" transform="translate(-1419.526 -767.734)"/><path class="a" d="M1633.036,780.634q0-5.954,3.119-9.428a11.534,11.534,0,0,1,8.718-3.472,11.679,11.679,0,0,1,8.718,3.472q3.19,3.543,3.19,9.428t-3.19,9.356a11.513,11.513,0,0,1-8.718,3.4,11.372,11.372,0,0,1-8.718-3.4Q1633.036,786.588,1633.036,780.634Zm5.031,0q0,4.112,1.772,6.237a6.1,6.1,0,0,0,5.033,2.2,6.22,6.22,0,0,0,5.033-2.2,9.624,9.624,0,0,0,1.842-6.237,9.924,9.924,0,0,0-1.842-6.309,6.225,6.225,0,0,0-5.033-2.2,6.1,6.1,0,0,0-5.033,2.2A9.843,9.843,0,0,0,1638.067,780.634Z" transform="translate(-1410.5 -767.734)"/></g><g transform="translate(0 34.039)"><path class="b" d="M1496.559,789.559v-.01h.406a3.345,3.345,0,0,1,3.346,3.344,2.8,2.8,0,0,1-1.017,2.26,4.041,4.041,0,0,1,1.831,1.344,5.766,5.766,0,0,1,1.729,4.216,5.936,5.936,0,0,1-1.729,4.26,5.1,5.1,0,0,1-3.639,1.707v.011h-3.718V789.559Zm-1.356,1.436v3.75h1.99a1.953,1.953,0,0,0,1.175-.52,1.719,1.719,0,0,0,.553-1.332,1.81,1.81,0,0,0-.56-1.363,1.94,1.94,0,0,0-1.4-.536Zm0,5.243v9.018h2.283a3.891,3.891,0,0,0,2.565-1.332,4.447,4.447,0,0,0,1.321-3.211,4.475,4.475,0,0,0-4.475-4.475Z" transform="translate(-1493.768 -788.7)"/><path class="b" d="M1509.959,789.555v1.436h-7.379v6.418h7.379v1.425h-7.379v6.418h7.379v1.435h-8.814V789.555Z" transform="translate(-1489.347 -788.696)"/><path class="b" d="M1515.037,799.228v7.459H1513.6V789.555h1.434v8.251h6.464v-8.251h1.436v17.132H1521.5v-7.459Z" transform="translate(-1481.882 -788.696)"/><path class="b" d="M1530.373,789.555v1.436h-7.379v6.418h7.379v1.425h-7.379v6.418h7.379v1.435h-8.815V789.555Z" transform="translate(-1477.113 -788.696)"/><path class="b" d="M1537.561,800.635h-5.412l-2.317,6.373h-1.526l6.556-17.99,6.543,17.99h-1.526Zm-.52-1.435-2.18-6-2.181,6Z" transform="translate(-1473.07 -789.018)"/><path class="b" d="M1537.909,806.687V789.555h1.435v15.7h6.442v1.435Z" transform="translate(-1467.314 -788.696)"/><path class="b" d="M1548.409,790.991v15.7h-1.423v-15.7h-4.216v-1.436h9.855v1.436Z" transform="translate(-1464.401 -788.696)"/><path class="b" d="M1551.781,799.228v7.459h-1.436V789.555h1.436v8.251h6.464v-8.251h1.435v17.132h-1.435v-7.459Z" transform="translate(-1459.862 -788.696)"/><path class="b" d="M1563.495,799.782l-5.9-10.228h1.65l4.972,8.624,4.972-8.624h1.649l-5.909,10.228v6.9h-1.435Z" transform="translate(-1455.517 -788.696)"/><path class="b" d="M1567.037,799.228a1.125,1.125,0,0,1,.35.831,1.139,1.139,0,0,1-.35.841,1.185,1.185,0,0,1-1.673,0,1.138,1.138,0,0,1-.35-.841,1.124,1.124,0,0,1,.35-.831,1.185,1.185,0,0,1,1.673,0Z" transform="translate(-1451.071 -783.107)"/><path class="b" d="M1576.06,789.559v-.01h.406a3.344,3.344,0,0,1,3.346,3.344,2.8,2.8,0,0,1-1.017,2.26,4.036,4.036,0,0,1,1.83,1.344,5.766,5.766,0,0,1,1.73,4.216,5.936,5.936,0,0,1-1.73,4.26,5.094,5.094,0,0,1-3.638,1.707v.011h-3.719V789.559Zm-1.356,1.436v3.75h1.99a1.945,1.945,0,0,0,1.174-.52,1.72,1.72,0,0,0,.555-1.332,1.808,1.808,0,0,0-.56-1.363,1.94,1.94,0,0,0-1.4-.536Zm0,5.243v9.018h2.282a3.885,3.885,0,0,0,2.565-1.332,4.449,4.449,0,0,0,1.323-3.211,4.477,4.477,0,0,0-4.475-4.475Z" transform="translate(-1446.125 -788.7)"/><path class="b" d="M1589.459,789.555v1.436h-7.379v6.418h7.379v1.425h-7.379v6.418h7.379v1.435h-8.815V789.555Z" transform="translate(-1441.704 -788.696)"/><path class="b" d="M1599.854,803.885v-14.33h1.435v14.33a2.919,2.919,0,0,0,4.615.667,2.755,2.755,0,0,0,.865-2.046V789.555h1.435V802.6a4.355,4.355,0,0,1-7.424,2.971l-.216-.192-.214.192a4.212,4.212,0,0,1-3.074,1.267,4.366,4.366,0,0,1-4.35-4.238V789.555h1.435v12.951a2.761,2.761,0,0,0,.865,2.046,2.925,2.925,0,0,0,4.107.011A2.73,2.73,0,0,0,1599.854,803.885Z" transform="translate(-1434.344 -788.696)"/><path class="b" d="M1613.236,789.555v1.436h-7.379v6.418h7.379v1.425h-7.379v6.418h7.379v1.435h-8.815V789.555Z" transform="translate(-1427.454 -788.696)"/><path class="b" d="M1620.426,800.635h-5.414l-2.317,6.373h-1.526l6.556-17.99,6.543,17.99h-1.526Zm-.522-1.435-2.18-6-2.181,6Z" transform="translate(-1423.41 -789.018)"/><path class="b" d="M1620.772,806.687V789.555h1.434v15.7h6.442v1.435Z" transform="translate(-1417.655 -788.696)"/><path class="b" d="M1631.272,790.991v15.7h-1.423v-15.7h-4.216v-1.436h9.855v1.436Z" transform="translate(-1414.742 -788.696)"/><path class="b" d="M1634.644,799.228v7.459h-1.436V789.555h1.436v8.251h6.464v-8.251h1.435v17.132h-1.435v-7.459Z" transform="translate(-1410.202 -788.696)"/><path class="b" d="M1646.358,799.782l-5.9-10.228h1.651l4.972,8.624,4.972-8.624h1.65l-5.911,10.228v6.9h-1.435Z" transform="translate(-1405.857 -788.696)"/></g></svg>